# xmcd
#
# Track frame offsets:
#	150
#	9118
#	28824
#	43553
#	62044
#	91946
#	99204
#	113842
#	148640
#	172099
#	199241
#	205549
#
# Disc length: 3178 seconds
#
# Revision: 1
# Processed by: cddbd v1.5.2PL0 Copyright (c) Steve Scherf et al.
# Submitted via: audiograbber 1.83.01
#
DISCID=970c680c
DTITLE=Spheron - Ecstasy Of God
DYEAR=2013
DGENRE=Death Metal
TTITLE0=A means to an end
TTITLE1=The beheaded coachman
TTITLE2=Prestige of the mortals
TTITLE3=Saturnian satellites
TTITLE4=Clasp the thorns
TTITLE5=Prelude to the misery
TTITLE6=Five degrees
TTITLE7=Pulse of instinct
TTITLE8=Tragedy of the clerics
TTITLE9=Choking on incense
TTITLE10=Anthropogenic
TTITLE11=From glint to crackling
EXTD=
EXTT0=
EXTT1=
EXTT2=
EXTT3=
EXTT4=
EXTT5=
EXTT6=
EXTT7=
EXTT8=
EXTT9=
EXTT10=
EXTT11=
PLAYORDER=
